<?xml version="1.0" encoding="UTF-8"?>
<svg version="1.1" xmlns="http://www.w3.org/2000/svg" width="512" height="512">
<path d="M0 0 C168.96 0 337.92 0 512 0 C512 168.96 512 337.92 512 512 C343.04 512 174.08 512 0 512 C0 343.04 0 174.08 0 0 Z " fill="#8C9EFF" transform="translate(0,0)"/>
<path d="M0 0 C24.08614239 1.15798761 47.66477682 11.68712814 68 24 C69.04800781 24.62648437 70.09601563 25.25296875 71.17578125 25.8984375 C87.83975421 36.82336583 94.83384387 60.91317196 101.265625 78.95922852 C101.8125568 80.47910979 102.37183416 81.99455955 102.9375 83.50756836 C117.02513935 121.40183389 124.26824693 163.62216964 126 204 C126.0522876 204.87003662 126.1045752 205.74007324 126.15844727 206.63647461 C125.90463303 210.42256953 123.2558957 212.35194149 120.625 214.8125 C120.0769873 215.33948486 119.52897461 215.86646973 118.96435547 216.40942383 C104.96971267 229.69966554 89.73741237 238.71113539 72 246 C71.07058594 246.39960938 70.14117187 246.79921875 69.18359375 247.2109375 C60.37100322 250.74729004 50.92739244 252.62036697 41.63964844 254.45605469 C39.29184021 254.93986127 36.98604791 255.50925292 34.6640625 256.1015625 C30.53476717 256.8763375 28.03781971 257.20993901 24 256 C18.95947605 251.7439239 14.96164514 245.87053833 12 240 C12 239.34 12 238.68 12 238 C12.54301758 237.764021 13.08603516 237.52804199 13.64550781 237.28491211 C38.39504416 226.47859212 58.15549055 213.27279375 77 194 C75.5459375 195.175625 75.5459375 195.175625 74.0625 196.375 C50.94543566 213.65153395 23.14990712 223.69028698 -5 229 C-6.10601562 229.21269531 -7.21203125 229.42539062 -8.3515625 229.64453125 C-20.44911417 231.81708898 -32.52302306 232.18654819 -44.77954102 232.18530273 C-47.16636235 232.18748071 -49.55271348 232.20568455 -51.93945312 232.22460938 C-62.43462153 232.26281272 -72.61241898 231.47519061 -83 230 C-83.70773056 229.89973511 -84.41546112 229.79947021 -85.14463806 229.69616699 C-109.3532446 226.2224532 -132.19436966 217.77307686 -153 205 C-154.2264601 204.32836709 -155.45524332 203.66093767 -156.6875 203 C-161.07825829 200.34897613 -165.01371108 197.21795659 -169 194 C-161.0981058 204.65037914 -150.72103219 212.41378743 -140 220 C-139.29842773 220.49935059 -138.59685547 220.99870117 -137.87402344 221.51318359 C-132.26305595 225.39109616 -126.43369083 228.3919175 -120.25 231.25 C-119.33089844 231.683125 -118.41179687 232.11625 -117.46484375 232.5625 C-113.34808453 234.49278942 -109.23365866 236.33845325 -105 238 C-107.4705872 244.79731504 -111.04288316 250.75833567 -116 256 C-119.85700739 257.62536097 -122.97733344 256.82599998 -127 256 C-128.43434306 255.77637319 -129.86929295 255.55661889 -131.3046875 255.33984375 C-150.32723085 252.21421086 -169.61436339 246.31605279 -186 236 C-186.6487207 235.59410645 -187.29744141 235.18821289 -187.96582031 234.77001953 C-197.911091 228.45137194 -206.61107491 221.25401548 -215 213 C-215.77988281 212.36835938 -216.55976563 211.73671875 -217.36328125 211.0859375 C-219.78561645 207.99876089 -219.27915595 205.93067372 -218.9375 202.0625 C-218.8765918 201.33651611 -218.81568359 200.61053223 -218.75292969 199.86254883 C-218.60690164 198.19222565 -218.44930459 196.52289009 -218.28271484 194.85449219 C-217.97124432 191.70966203 -217.69906163 188.56243313 -217.42578125 185.4140625 C-213.30205773 140.05310379 -203.16209538 65.77649984 -170.48388672 30.35668945 C-169.03515625 29.17578125 -169.03515625 29.17578125 -166.0625 27.3125 C-165.51239258 26.96203613 -164.96228516 26.61157227 -164.39550781 26.25048828 C-162.61504066 25.1338484 -160.81166535 24.06514998 -159 23 C-158.37915527 22.62246582 -157.75831055 22.24493164 -157.11865234 21.85595703 C-139.90960495 11.41495524 -113.76365385 -2.36905847 -93 1 C-90.81817659 3.43850852 -90 4.7321149 -90 8 C-90.62753174 8.1952124 -91.25506348 8.3904248 -91.90161133 8.59155273 C-111.40167664 14.71740439 -129.66639724 21.48348919 -146 34 C-147.423125 35.09054688 -147.423125 35.09054688 -148.875 36.203125 C-152.80858551 39.29053223 -156.50907415 42.41408297 -160 46 C-159.4738208 45.70867187 -158.9476416 45.41734375 -158.40551758 45.1171875 C-145.98427392 38.29294738 -133.554848 32.48708545 -120.18554688 27.77539062 C-118.40062521 27.14213424 -116.62796886 26.47439603 -114.859375 25.796875 C-62.53899225 6.52094451 0.12191129 14.15797176 49.765625 37 C55.90629694 39.87579678 61.97060344 42.89805965 68 46 C47.25579662 26.53575811 23.57310888 16.99048838 -3 8 C-2.690625 7.236875 -2.38125 6.47375 -2.0625 5.6875 C-1.32106407 3.81210323 -0.63771783 1.91315348 0 0 Z " fill="#FEFEFF" transform="translate(303,128)"/>
<path d="M0 0 C7.60873749 4.30637607 13.31441691 10.91725107 16.18359375 19.203125 C18.52444501 29.84600154 17.30848261 39.65856995 11.8125 49.0625 C7.52855767 55.12975785 2.34012358 60.58434846 -5.1875 62.0625 C-12.58490758 62.77311711 -18.95300735 62.34802159 -25.1875 58.0625 C-33.0141001 51.24741526 -37.35686625 43.98711022 -38.59375 33.67578125 C-39.04856715 23.34006157 -36.42853542 14.7749205 -30 6.625 C-21.75065623 -1.90941828 -11.03662209 -4.85070527 0 0 Z " fill="#8D9FFF" transform="translate(318.1875,241.9375)"/>
<path d="M0 0 C7.61314105 4.30886838 13.30218117 10.91680801 16.1875 19.19921875 C18.31200862 28.93212385 17.80501305 39.31232421 12.8125 48.0625 C8.13585579 54.30093397 2.89721671 60.70980421 -5.1875 62.0625 C-13.2942705 62.96900788 -19.4693683 61.78582809 -26.1875 57.0625 C-32.99960248 51.05949781 -37.63252378 42.74355992 -38.390625 33.6171875 C-38.57937114 22.82719963 -35.99395212 14.51847496 -29.1875 6.0625 C-26.8125 3.75 -26.8125 3.75 -24.1875 2.0625 C-23.62546875 1.69253906 -23.0634375 1.32257813 -22.484375 0.94140625 C-15.24383394 -3.3116758 -7.64116495 -3.3804232 0 0 Z " fill="#8D9FFF" transform="translate(216.1875,241.9375)"/>
</svg>
